<?xml version="1.0" standalone="no"?>
<!DOCTYPE svg PUBLIC "-//W3C//DTD SVG 1.0//EN" "http://www.w3.org/TR/2001/REC-SVG-20010904/DTD/svg10.dtd">
<svg xmlns="http://www.w3.org/2000/svg" xmlns:xlink="http://www.w3.org/1999/xlink" id="body_1" width="67" height="67">

<g transform="matrix(0.14565217 0 0 0.14565217 0 0)">
	<g>
        <path d="M460 380L0 380L0 60L460 60L460 380z" stroke="none" fill="#CBB57A" fill-rule="nonzero" />
        <path d="M460 400L0 400L0 380L20 370L440 370L460 380L460 400z" stroke="none" fill="#826846" fill-rule="nonzero" />
        <path d="M460 380L0 380L10 370L20 360L20 80L0 60L460 60L440 80L440 360L460 380z" stroke="none" fill="#9E8E60" fill-rule="nonzero" />
        <path d="M440 360L20 360L20 80L440 80L440 360z" stroke="none" fill="#3A3B34" fill-rule="nonzero" />
        <path d="M190 330L190 360C 190 365.523 185.523 370 180 370L180 370L60 370C 54.477 370 50 365.523 50 360L50 360L50 330C 50 324.477 54.477 320 60 320L60 320L180 320C 185.523 320 190 324.477 190 330z" stroke="none" fill="#E5B352" fill-rule="nonzero" />
        <path d="M170 370L70 370L70 320L170 320L170 370z" stroke="none" fill="#D66A40" fill-rule="nonzero" />
        <path d="M410 355L410 365C 410 367.761 407.761 370 405 370L405 370L345 370C 342.239 370 340 367.761 340 365L340 365L340 355C 340 352.239 342.239 350 345 350L345 350L405 350C 407.761 350 410 352.239 410 355z" stroke="none" fill="#D1D6CE" fill-rule="nonzero" />
        <path d="M189.489 136.838C 188.20999 133.00099 184.745 130.312 180.711 130.025C 176.674 129.734 172.866 131.90999 171.058 135.527L171.058 135.527L133.822 210L120.00201 210C 114.479004 210 110.00201 214.477 110.00201 220C 110.00201 225.523 114.479004 230 120.00201 230L120.00201 230L123.82201 230L111.05801 255.528C 108.588005 260.468 110.590004 266.475 115.53001 268.945C 120.46901 271.414 126.477005 269.41202 128.947 264.47302L128.947 264.47302L146.183 230L199.462 230L210.516 263.162C 211.91301 267.353 215.81401 270.003 220.001 270.003C 221.04901 270.003 222.11601 269.836 223.16501 269.487C 228.40501 267.74 231.23601 262.077 229.49 256.838L229.49 256.838L189.489 136.838zM156.182 210L178.149 166.065L192.795 210L156.182 210zM340 170C 334.477 170 330 174.477 330 180L330 180L330 180.027C 321.637 173.736 311.247 170 300 170C 272.43 170 250 192.43 250 220C 250 247.57 272.43 270 300 270C 311.247 270 321.637 266.265 330 259.973L330 259.973L330 260C 330 265.523 334.477 270 340 270C 345.523 270 350 265.523 350 260L350 260L350 180C 350 174.478 345.523 170 340 170zM300 250C 283.458 250 270 236.54199 270 220C 270 203.45801 283.458 190 300 190C 316.542 190 330 203.45801 330 220C 330 236.54199 316.542 250 300 250z" stroke="none" fill="#D1D6CE" fill-rule="nonzero" />
	</g>
</g>
</svg>